<svg width="86" height="83" viewBox="0 0 86 83" fill="none" xmlns="http://www.w3.org/2000/svg">
<rect y="49.8" width="7.11429" height="33.2" fill="#CB0001"/>
<rect x="7.11426" y="75.8857" width="28.4571" height="7.11429" fill="#CB0001"/>
<rect x="11.8572" y="49.8" width="23.7143" height="7.11429" fill="#CB0001"/>
<rect x="28.4572" y="56.9143" width="7.11429" height="16.6" fill="#CB0001"/>
<rect width="7.11429" height="33.2" transform="matrix(1 0 0 -1 0 33.2)" fill="#CB0001"/>
<rect width="28.4571" height="7.11429" transform="matrix(1 0 0 -1 7.11426 7.11426)" fill="#CB0001"/>
<rect width="23.7143" height="7.11429" transform="matrix(1 0 0 -1 11.8572 33.2)" fill="#CB0001"/>
<rect width="7.11429" height="16.6" transform="matrix(1 0 0 -1 28.4572 26.0857)" fill="#CB0001"/>
<rect x="85.3715" y="33.2" width="7.11429" height="33.2" transform="rotate(180 85.3715 33.2)" fill="#CB0001"/>
<rect x="78.2571" y="7.11426" width="28.4571" height="7.11429" transform="rotate(180 78.2571 7.11426)" fill="#CB0001"/>
<rect x="73.5143" y="33.2" width="23.7143" height="7.11429" transform="rotate(180 73.5143 33.2)" fill="#CB0001"/>
<rect x="56.9143" y="26.0857" width="7.11429" height="16.6" transform="rotate(180 56.9143 26.0857)" fill="#CB0001"/>
<rect width="7.11429" height="33.2" transform="matrix(-1 0 0 1 85.3715 49.8)" fill="#CB0001"/>
<rect width="28.4571" height="7.11429" transform="matrix(-1 0 0 1 78.2571 75.8857)" fill="#CB0001"/>
<rect width="23.7143" height="7.11429" transform="matrix(-1 0 0 1 73.5143 49.8)" fill="#CB0001"/>
<rect width="7.11429" height="16.6" transform="matrix(-1 0 0 1 56.9143 56.9143)" fill="#CB0001"/>
</svg>
