<svg width="239" height="83" viewBox="0 0 239 83" fill="none" xmlns="http://www.w3.org/2000/svg">
<rect y="49.8" width="7.11429" height="33.2" fill="#CB0001"/>
<rect x="7.11426" y="75.8857" width="28.4571" height="7.11429" fill="#CB0001"/>
<rect x="11.8572" y="49.8" width="23.7143" height="7.11429" fill="#CB0001"/>
<rect x="28.4572" y="56.9143" width="7.11429" height="16.6" fill="#CB0001"/>
<rect width="7.11429" height="33.2" transform="matrix(1 0 0 -1 0 33.2)" fill="#CB0001"/>
<rect width="28.4571" height="7.11429" transform="matrix(1 0 0 -1 7.11426 7.11426)" fill="#CB0001"/>
<rect width="23.7143" height="7.11429" transform="matrix(1 0 0 -1 11.8572 33.2)" fill="#CB0001"/>
<rect width="7.11429" height="16.6" transform="matrix(1 0 0 -1 28.4572 26.0857)" fill="#CB0001"/>
<rect x="85.3715" y="33.2" width="7.11429" height="33.2" transform="rotate(180 85.3715 33.2)" fill="#CB0001"/>
<rect x="78.2571" y="7.11426" width="28.4571" height="7.11429" transform="rotate(180 78.2571 7.11426)" fill="#CB0001"/>
<rect x="73.5143" y="33.2" width="23.7143" height="7.11429" transform="rotate(180 73.5143 33.2)" fill="#CB0001"/>
<rect x="56.9143" y="26.0857" width="7.11429" height="16.6" transform="rotate(180 56.9143 26.0857)" fill="#CB0001"/>
<rect width="7.11429" height="33.2" transform="matrix(-1 0 0 1 85.3715 49.8)" fill="#CB0001"/>
<rect width="28.4571" height="7.11429" transform="matrix(-1 0 0 1 78.2571 75.8857)" fill="#CB0001"/>
<rect width="23.7143" height="7.11429" transform="matrix(-1 0 0 1 73.5143 49.8)" fill="#CB0001"/>
<rect width="7.11429" height="16.6" transform="matrix(-1 0 0 1 56.9143 56.9143)" fill="#CB0001"/>
<path d="M106.087 34.2687C105.536 34.2687 105.26 33.9735 105.26 33.3832V18.224C105.26 17.6337 105.536 17.3386 106.087 17.3386H107.999C108.472 17.3386 108.708 17.6337 108.708 18.224V31.3407H115.591C116.181 31.3407 116.476 31.5965 116.476 32.1081V33.5013C116.476 34.0129 116.181 34.2687 115.591 34.2687H106.087ZM118.448 34.2687C117.881 34.2687 117.696 34.0089 117.893 33.4895L123.678 18.2949C123.922 17.6573 124.292 17.3386 124.788 17.3386H126.441C126.937 17.3386 127.307 17.6573 127.551 18.2949L133.336 33.4895C133.532 34.0089 133.347 34.2687 132.781 34.2687H130.904C130.384 34.2687 130.022 33.9971 129.817 33.454L128.613 30.2782H122.616L121.411 33.454C121.207 33.9971 120.845 34.2687 120.325 34.2687H118.448ZM123.714 27.3502H127.515L126.063 23.5959C125.89 23.1551 125.784 22.8363 125.744 22.6396C125.713 22.4349 125.677 22.1358 125.638 21.7423H125.591C125.551 22.1358 125.512 22.4349 125.473 22.6396C125.441 22.8363 125.339 23.1551 125.166 23.5959L123.714 27.3502Z" fill="white"/>
<path d="M143.446 25.8036C143.446 23.0882 144.155 20.9316 145.572 19.3338C146.988 17.7361 148.995 16.9372 151.593 16.9372C153.159 16.9372 154.387 17.1379 155.276 17.5393C156.174 17.9407 156.961 18.5625 157.638 19.4047C158.047 19.9163 158.035 20.3137 157.602 20.5971L156.256 21.4708C155.863 21.7305 155.442 21.6164 154.993 21.1284C154.623 20.727 154.155 20.3925 153.588 20.1248C153.021 19.8572 152.396 19.7234 151.711 19.7234C150.058 19.7234 148.881 20.2468 148.181 21.2937C147.48 22.3326 147.13 23.8359 147.13 25.8036C147.13 27.7713 147.48 29.2786 148.181 30.3254C148.881 31.3644 150.058 31.8838 151.711 31.8838C152.514 31.8838 153.206 31.8051 153.789 31.6477C154.371 31.4824 154.922 31.1873 155.442 30.7622V28.6489H152.88C152.289 28.6489 151.994 28.3931 151.994 27.8815V26.4884C151.994 25.9768 152.289 25.721 152.88 25.721H158.004C158.594 25.721 158.889 25.9768 158.889 26.4884V32.4859C157.787 33.2966 156.673 33.8633 155.548 34.186C154.43 34.5087 153.112 34.6701 151.593 34.6701C149.035 34.6701 147.036 33.8712 145.595 32.2734C144.163 30.6757 143.446 28.5191 143.446 25.8036ZM162.927 34.2687C162.376 34.2687 162.1 33.9735 162.1 33.3832V18.224C162.1 17.6337 162.376 17.3386 162.927 17.3386H164.839C165.312 17.3386 165.548 17.6337 165.548 18.224V31.3407H172.431C173.021 31.3407 173.316 31.5965 173.316 32.1081V33.5013C173.316 34.0129 173.021 34.2687 172.431 34.2687H162.927ZM174.945 25.8036C174.945 23.0882 175.646 20.9316 177.047 19.3338C178.448 17.7361 180.447 16.9372 183.044 16.9372C185.642 16.9372 187.641 17.7361 189.042 19.3338C190.443 20.9316 191.144 23.0882 191.144 25.8036C191.144 28.5191 190.443 30.6757 189.042 32.2734C187.641 33.8712 185.642 34.6701 183.044 34.6701C180.447 34.6701 178.448 33.8712 177.047 32.2734C175.646 30.6757 174.945 28.5191 174.945 25.8036ZM178.629 25.8036C178.629 27.7713 178.979 29.2786 179.68 30.3254C180.388 31.3644 181.51 31.8838 183.044 31.8838C184.579 31.8838 185.697 31.3644 186.397 30.3254C187.106 29.2786 187.46 27.7713 187.46 25.8036C187.46 23.8359 187.106 22.3326 186.397 21.2937C185.697 20.2468 184.579 19.7234 183.044 19.7234C181.51 19.7234 180.388 20.2468 179.68 21.2937C178.979 22.3326 178.629 23.8359 178.629 25.8036ZM194.992 34.2687C194.363 34.2687 194.048 33.9735 194.048 33.3832V18.224C194.048 17.6337 194.363 17.3386 194.992 17.3386H199.006C202.029 17.3386 204.067 17.7124 205.122 18.4602C206.185 19.2 206.716 20.3413 206.716 21.884C206.716 22.9623 206.318 23.7966 205.524 24.3869C204.736 24.9772 203.973 25.3196 203.233 25.414V25.4494C203.949 25.4967 204.792 25.8587 205.76 26.5356C206.728 27.2125 207.212 28.1688 207.212 29.4045C207.212 30.8527 206.621 32.0255 205.441 32.9228C204.26 33.82 202.312 34.2687 199.597 34.2687H194.992ZM197.495 31.388H199.219C200.888 31.388 202.021 31.2424 202.619 30.9511C203.225 30.6599 203.528 30.0696 203.528 29.1802C203.528 28.3459 203.178 27.7713 202.477 27.4565C201.785 27.1338 200.699 26.9724 199.219 26.9724H197.495V31.388ZM197.495 24.1862H199.042C200.057 24.1862 201.006 24.0091 201.887 23.6549C202.777 23.3007 203.221 22.7498 203.221 22.002C203.221 21.4196 202.973 20.9788 202.477 20.6797C201.99 20.3728 200.844 20.2193 199.042 20.2193H197.495V24.1862ZM209.809 34.2687C209.242 34.2687 209.057 34.0089 209.254 33.4895L215.039 18.2949C215.283 17.6573 215.653 17.3386 216.149 17.3386H217.802C218.298 17.3386 218.668 17.6573 218.912 18.2949L224.697 33.4895C224.894 34.0089 224.709 34.2687 224.142 34.2687H222.265C221.745 34.2687 221.383 33.9971 221.179 33.454L219.974 30.2782H213.977L212.773 33.454C212.568 33.9971 212.206 34.2687 211.686 34.2687H209.809ZM215.075 27.3502H218.876L217.424 23.5959C217.251 23.1551 217.145 22.8363 217.105 22.6396C217.074 22.4349 217.038 22.1358 216.999 21.7423H216.952C216.913 22.1358 216.873 22.4349 216.834 22.6396C216.802 22.8363 216.7 23.1551 216.527 23.5959L215.075 27.3502ZM227.625 34.2687C227.074 34.2687 226.798 33.9735 226.798 33.3832V18.224C226.798 17.6337 227.074 17.3386 227.625 17.3386H229.537C230.01 17.3386 230.246 17.6337 230.246 18.224V31.3407H237.129C237.719 31.3407 238.014 31.5965 238.014 32.1081V33.5013C238.014 34.0129 237.719 34.2687 237.129 34.2687H227.625Z" fill="white"/>
<path d="M105.146 68.2985V53.6445H113.99V55.2187H106.92V60.1701H113.532V61.7443H106.92V66.7244H114.104V68.2985H105.146ZM118.047 53.6445L121.825 59.7408H121.939L125.717 53.6445H127.807L123.199 60.9715L127.807 68.2985H125.717L121.939 62.3167H121.825L118.047 68.2985H115.958L120.68 60.9715L115.958 53.6445H118.047ZM130.116 68.2985V53.6445H135.068C136.217 53.6445 137.157 53.852 137.887 54.267C138.621 54.6773 139.165 55.233 139.518 55.9342C139.871 56.6354 140.048 57.4177 140.048 58.2811C140.048 59.1445 139.871 59.9292 139.518 60.6352C139.17 61.3412 138.631 61.9041 137.901 62.3239C137.171 62.7389 136.236 62.9464 135.096 62.9464H131.547V61.3722H135.039C135.826 61.3722 136.458 61.2363 136.935 60.9644C137.412 60.6925 137.758 60.3252 137.973 59.8625C138.192 59.395 138.302 58.8679 138.302 58.2811C138.302 57.6944 138.192 57.1697 137.973 56.707C137.758 56.2443 137.41 55.8817 136.928 55.6194C136.446 55.3522 135.807 55.2187 135.01 55.2187H131.891V68.2985H130.116ZM142.906 68.2985V53.6445H147.858C149.002 53.6445 149.942 53.8401 150.677 54.2313C151.411 54.6176 151.955 55.1495 152.308 55.8269C152.661 56.5042 152.838 57.2746 152.838 58.138C152.838 59.0014 152.661 59.767 152.308 60.4349C151.955 61.1027 151.414 61.6274 150.684 62.009C149.954 62.3859 149.022 62.5743 147.886 62.5743H143.879V60.9715H147.829C148.611 60.9715 149.241 60.857 149.718 60.6281C150.2 60.3991 150.548 60.0747 150.763 59.655C150.982 59.2304 151.092 58.7248 151.092 58.138C151.092 57.5513 150.982 57.0385 150.763 56.5996C150.543 56.1608 150.193 55.8221 149.711 55.5836C149.229 55.3403 148.592 55.2187 147.8 55.2187H144.681V68.2985H142.906ZM149.804 61.7157L153.41 68.2985H151.349L147.8 61.7157H149.804ZM155.795 68.2985V53.6445H164.639V55.2187H157.569V60.1701H164.181V61.7443H157.569V66.7244H164.753V68.2985H155.795ZM175.851 57.308C175.765 56.583 175.417 56.0201 174.806 55.6194C174.196 55.2187 173.447 55.0183 172.559 55.0183C171.911 55.0183 171.343 55.1233 170.856 55.3332C170.375 55.5431 169.998 55.8316 169.726 56.199C169.459 56.5663 169.325 56.9836 169.325 57.4511C169.325 57.8423 169.418 58.1786 169.604 58.46C169.795 58.7367 170.038 58.968 170.334 59.1541C170.63 59.3353 170.94 59.4856 171.264 59.6049C171.589 59.7193 171.887 59.8124 172.159 59.8839L173.647 60.2846C174.029 60.3848 174.453 60.5231 174.921 60.6996C175.393 60.8761 175.844 61.117 176.273 61.4223C176.707 61.7228 177.065 62.1092 177.346 62.5815C177.628 63.0537 177.768 63.6333 177.768 64.3202C177.768 65.112 177.561 65.8276 177.146 66.4668C176.736 67.106 176.135 67.614 175.343 67.9908C174.556 68.3677 173.599 68.5561 172.474 68.5561C171.424 68.5561 170.515 68.3868 169.747 68.0481C168.984 67.7094 168.383 67.2372 167.944 66.6313C167.51 66.0255 167.264 65.3219 167.207 64.5205H169.039C169.087 65.0739 169.273 65.5318 169.597 65.8944C169.926 66.2521 170.341 66.5192 170.842 66.6957C171.348 66.8675 171.892 66.9533 172.474 66.9533C173.151 66.9533 173.759 66.8436 174.298 66.6242C174.837 66.4 175.264 66.0899 175.579 65.694C175.894 65.2933 176.051 64.8258 176.051 64.2916C176.051 63.805 175.915 63.4091 175.643 63.1038C175.371 62.7985 175.014 62.5505 174.57 62.3596C174.126 62.1688 173.647 62.0019 173.132 61.8588L171.329 61.3436C170.184 61.0145 169.278 60.5446 168.61 59.934C167.942 59.3234 167.608 58.5244 167.608 57.537C167.608 56.7165 167.83 56.001 168.273 55.3904C168.722 54.7751 169.323 54.298 170.077 53.9594C170.835 53.6159 171.682 53.4442 172.617 53.4442C173.561 53.4442 174.401 53.6135 175.135 53.9522C175.87 54.2861 176.452 54.744 176.881 55.326C177.315 55.908 177.544 56.5686 177.568 57.308H175.851ZM188.7 57.308C188.614 56.583 188.266 56.0201 187.655 55.6194C187.045 55.2187 186.296 55.0183 185.408 55.0183C184.76 55.0183 184.192 55.1233 183.706 55.3332C183.224 55.5431 182.847 55.8316 182.575 56.199C182.308 56.5663 182.174 56.9836 182.174 57.4511C182.174 57.8423 182.267 58.1786 182.453 58.46C182.644 58.7367 182.887 58.968 183.183 59.1541C183.479 59.3353 183.789 59.4856 184.113 59.6049C184.438 59.7193 184.736 59.8124 185.008 59.8839L186.496 60.2846C186.878 60.3848 187.302 60.5231 187.77 60.6996C188.242 60.8761 188.693 61.117 189.122 61.4223C189.556 61.7228 189.914 62.1092 190.195 62.5815C190.477 63.0537 190.618 63.6333 190.618 64.3202C190.618 65.112 190.41 65.8276 189.995 66.4668C189.585 67.106 188.984 67.614 188.192 67.9908C187.405 68.3677 186.448 68.5561 185.323 68.5561C184.273 68.5561 183.364 68.3868 182.596 68.0481C181.833 67.7094 181.232 67.2372 180.793 66.6313C180.359 66.0255 180.114 65.3219 180.056 64.5205H181.888C181.936 65.0739 182.122 65.5318 182.446 65.8944C182.775 66.2521 183.19 66.5192 183.691 66.6957C184.197 66.8675 184.741 66.9533 185.323 66.9533C186 66.9533 186.608 66.8436 187.147 66.6242C187.686 66.4 188.113 66.0899 188.428 65.694C188.743 65.2933 188.9 64.8258 188.9 64.2916C188.9 63.805 188.764 63.4091 188.492 63.1038C188.221 62.7985 187.863 62.5505 187.419 62.3596C186.975 62.1688 186.496 62.0019 185.981 61.8588L184.178 61.3436C183.033 61.0145 182.127 60.5446 181.459 59.934C180.791 59.3234 180.457 58.5244 180.457 57.537C180.457 56.7165 180.679 56.001 181.122 55.3904C181.571 54.7751 182.172 54.298 182.926 53.9594C183.684 53.6159 184.531 53.4442 185.466 53.4442C186.41 53.4442 187.25 53.6135 187.984 53.9522C188.719 54.2861 189.301 54.744 189.73 55.326C190.164 55.908 190.393 56.5686 190.417 57.308H188.7Z" fill="white"/>
</svg>
